# xmcd
#
# Track frame offsets: 
#        150
#        11527
#        28550
#        39525
#        52750
#        66695
#        74962
#        93235
#        107550
#        115687
#        136810
#        150327
#
# Disc length: 2140 seconds
#
# Revision: 1
# Processed by: cddbd v1.4PL0 Copyright (c) Steve Scherf et al.
# Submitted via: ExactAudioCopy v0.90a11
#
DISCID=99085a0c
DTITLE=Yo-Yo Ma - Bach Unaccompanied Cello Suite No. 1 and 2
DYEAR=1900
DGENRE=
TTITLE0=Cello Suite No 1. in G Major - I. Praeludium:  Moderato
TTITLE1=Cello Suite No 1. in G Major - II. Allemande:  Moderato
TTITLE2=Cello Suite No 1. in G Major - III. Courante:  Allegro maestos
TTITLE2=o
TTITLE3=Cello Suite No 1. in G Major - IV. Sarabande:  Largo
TTITLE4=Cello Suite No 1. in G Major - V. Menuetto I and II
TTITLE5=Cello Suite No 1. in G Major - VI. Gigue:  Allegro
TTITLE6=Cello Suite No 2. in D Minor - I. Praeludium:  Molto moderato
TTITLE7=Cello Suite No 2. in D Minor - II. Allemande:  Moderato
TTITLE8=Cello Suite No 2. in D Minor - III. Courante:  Allegro energic
TTITLE8=o
TTITLE9=Cello Suite No 2. in D Minor - IV. Sarabande:  Largo
TTITLE10=Cello Suite No 2. in D Minor - V. Menuetto I and II
TTITLE11=Cello Suite No 2. in D Minor - VI. Gigue:  Allegro
EXTD=
EXTT0=
EXTT1=
EXTT2=
EXTT3=
EXTT4=
EXTT5=
EXTT6=
EXTT7=
EXTT8=
EXTT9=
EXTT10=
EXTT11=
PLAYORDER=
